<?xml version="1.0"?>
<svg width="340" height="100" xmlns="http://www.w3.org/2000/svg" xmlns:svg="http://www.w3.org/2000/svg" class="el-tooltip" preserveAspectRatio="xMidYMid meet">
 <g class="layer">
  <title>Layer 1</title>
  <rect class="background" fill="#fff" height="100%" id="svg_1" width="100%" x="0" y="0"/>
  <rect class="watermarklayer" fill="url(#watermark)" height="250" id="svg_2" width="340" x="-14" y="-36"/>
  <g class="icon-text-wrapper icon-svg-group iconsvg" fill="#a07440" id="svg_3">
   <g id="svg_4" transform="translate(0 67)">
    <g class="tp-name iconsvg-namesvg" id="svg_5">
     <g id="svg_6">
      <path d="m94.64932,-79.43631l-1.90725,16.29492l-19.20208,0l0.90733,-6.70314l-22.99806,0l-4.79589,37.40425l22.99806,0l0.99992,-11.49903l-5.81432,-9.6103l25.90522,0l-3.79598,30.70111l-53.79175,0q-1.40729,0 -2.61089,-0.49996q-1.2036,-0.49996 -2.05538,-1.40729q-0.83326,-0.88881 -1.14805,-2.14797q-0.29627,-1.24064 0.1111,-2.64792l0,0l6.70314,-49.88467l60.49489,0l-0.00001,0zm15.88755,0l53.79175,0q1.40729,0 2.61089,0.49996q1.2036,0.49996 2.03686,1.38877q0.85178,0.90733 1.16657,2.11093q0.29627,1.18509 -0.1111,2.68496l0,0l-6.70314,49.90319l-53.79175,0q-1.38877,0 -2.59237,-0.49996q-1.2036,-0.49996 -2.05538,-1.40729q-0.85178,-0.88881 -1.14805,-2.14797q-0.29627,-1.24064 0.09258,-2.64792l0,0l6.70314,-49.88467zm40.29289,9.59178l-22.99806,0l-4.79589,37.40425l22.10924,0l5.6847,-37.40425l0.00001,0zm33.2009,35.497l34.60819,0l1.88873,-11.49903l-38.38565,0l4.79589,-33.58975l56.58781,0l-1.88873,16.29492l-19.20208,0l0.99992,-6.70314l-18.29475,0l-2.90716,14.40619l38.40416,0l-3.81449,25.8867q0,1.40729 -0.64809,2.64792q-0.64809,1.25915 -1.74059,2.14797q-1.11102,0.90733 -2.44424,1.40729q-1.35174,0.49996 -2.85161,0.49996l0,0l-49.90319,0l1.90725,-15.40611l2.88864,3.90708l-0.00001,0zm72.29019,-45.08878l23.10916,0l-2.90716,21.99814l22.29441,0l2.70348,-18.20217l-2.88864,-3.79598l22.09073,0l-7.70305,56.58781l-19.20208,0l3.81449,-24.99789l-22.40551,0l-3.4997,24.99789l-19.20208,0l7.70305,-53.79175l-3.90708,-2.79606l-0.00002,0.00001z" id="svg_7" transform="translate(-2.41459 33.804)"/>
     </g>
     <!---->
     <!---->
     <!---->
     <!---->
     <!---->
     <!---->
     <!---->
    </g>
    <!---->
   </g>
  </g>
 </g>

</svg>